<?xml version="1.0" encoding="UTF-8" standalone="no"?>
<svg
   version="1.1"
   id="Layer_1"
   x="0px"
   y="0px"
   width="85px"
   height="85px"
   viewBox="0 0 80 80"
   enable-background="new 0 0 80 80"
   xml:space="preserve"
   sodipodi:docname="logo (copy).svg"
   inkscape:version="1.1.1 (3bf5ae0d25, 2021-09-20)"
   xmlns:inkscape="http://www.inkscape.org/namespaces/inkscape"
   xmlns:sodipodi="http://sodipodi.sourceforge.net/DTD/sodipodi-0.dtd"
   xmlns="http://www.w3.org/2000/svg"
   xmlns:svg="http://www.w3.org/2000/svg"><defs
   id="defs13" /><sodipodi:namedview
   id="namedview11"
   pagecolor="#ffffff"
   bordercolor="#666666"
   borderopacity="1.0"
   inkscape:pageshadow="2"
   inkscape:pageopacity="0.0"
   inkscape:pagecheckerboard="0"
   showgrid="false"
   inkscape:zoom="2.1254798"
   inkscape:cx="46.577719"
   inkscape:cy="35.756633"
   inkscape:window-width="1092"
   inkscape:window-height="503"
   inkscape:window-x="72"
   inkscape:window-y="228"
   inkscape:window-maximized="0"
   inkscape:current-layer="Layer_1" />
	<g
   id="g4">
		<path
   fill="#ffffff"
   d="M 40,0 C 62.091,0 80,17.909 80,40 80,62.091 62.091,80 40,80 17.909,80 0,62.091 0,40 0,17.909 17.909,0 40,0 Z"
   id="path2" />
	</g>
	
<path
   id="path13945"
   style="fill:none;stroke:#007eff;stroke-width:2.77082;stroke-linecap:round;stroke-linejoin:round;stroke-miterlimit:4;stroke-dasharray:none;stroke-opacity:0.46943"
   d="M 55.447194,55.555579 55.315226,48.694856 24.462244,32.394013 V 24.44442 m 19.674472,31.111159 0.09871,-5.046448 2.694809,-2.439002 m 5.750539,-5.204662 2.810592,-2.543793 0.04639,-7.927661 -0.06105,-7.949593 m -20.930066,31.111159 0.0075,-7.777791 0.07164,-4.922486 0.8106,-0.886092 m 5.16224,-5.642987 3.597211,-3.93221 -0.02936,-7.949593 M 24.462244,55.55558 v -7.777791 -4.922487 l 3.967199,-4.102654 m 5.332667,-5.514744 0.816029,-0.843891 -0.0018,-7.949593" /></svg>
